<?xml version="1.0" encoding="UTF-8" standalone="no"?>
<!-- Uploaded to: SVG Repo, www.svgrepo.com, Generator: SVG Repo Mixer Tools -->

<svg
   width="800px"
   height="800px"
   viewBox="0 0 24 24"
   fill="none"
   version="1.1"
   id="svg4"
   sodipodi:docname="00-despacho-dark.svg"
   inkscape:version="1.3.2 (091e20ef0f, 2023-11-25)"
   xmlns:inkscape="http://www.inkscape.org/namespaces/inkscape"
   xmlns:sodipodi="http://sodipodi.sourceforge.net/DTD/sodipodi-0.dtd"
   xmlns="http://www.w3.org/2000/svg"
   xmlns:svg="http://www.w3.org/2000/svg">
  <defs
     id="defs4" />
  <sodipodi:namedview
     id="namedview4"
     pagecolor="#505050"
     bordercolor="#ffffff"
     borderopacity="1"
     inkscape:showpageshadow="0"
     inkscape:pageopacity="0"
     inkscape:pagecheckerboard="1"
     inkscape:deskcolor="#505050"
     inkscape:zoom="1.09625"
     inkscape:cx="400"
     inkscape:cy="400"
     inkscape:window-width="1890"
     inkscape:window-height="1076"
     inkscape:window-x="0"
     inkscape:window-y="0"
     inkscape:window-maximized="1"
     inkscape:current-layer="svg4" />
  <path
     opacity="0.4"
     d="M16.19 2H7.81C4.17 2 2 4.17 2 7.81V16.18C2 19.83 4.17 22 7.81 22H16.18C19.82 22 21.99 19.83 21.99 16.19V7.81C22 4.17 19.83 2 16.19 2Z"
     fill="#292D32"
     id="path1"
     style="fill:#999999" />
  <path
     d="M21.3 12.23H17.82C16.84 12.23 15.97 12.77 15.53 13.65L14.69 15.31C14.49 15.71 14.09 15.96 13.65 15.96H10.37C10.06 15.96 9.62 15.89 9.33 15.31L8.49 13.66C8.05 12.79 7.17 12.24 6.2 12.24H2.7C2.31 12.24 2 12.55 2 12.94V16.2C2 19.83 4.18 22 7.82 22H16.2C19.63 22 21.74 20.12 22 16.78V12.93C22 12.55 21.69 12.23 21.3 12.23Z"
     fill="#292D32"
     id="path2" />
  <path
     d="M13.55 7.7999H10.45C10.06 7.7999 9.75 7.4899 9.75 7.0999C9.75 6.7099 10.06 6.3999 10.45 6.3999H13.55C13.94 6.3999 14.25 6.7099 14.25 7.0999C14.25 7.4899 13.93 7.7999 13.55 7.7999Z"
     fill="#292D32"
     id="path3" />
  <path
     d="M14.3307 10.5899H9.6707C9.2807 10.5899 8.9707 10.2799 8.9707 9.88994C8.9707 9.49994 9.2807 9.18994 9.6707 9.18994H14.3207C14.7107 9.18994 15.0207 9.49994 15.0207 9.88994C15.0207 10.2799 14.7107 10.5899 14.3307 10.5899Z"
     fill="#292D32"
     id="path4" />
  <path
     style="fill:#ececec;stroke-width:0.912201"
     d="M 245.83808,732.42627 C 183.91153,729.35481 135.8683,706.51194 104.01493,664.9943 85.594048,640.98456 73.335125,608.37521 68.693543,571.03763 67.80981,563.92875 67.502851,543.82221 67.502851,493.04447 v -68.41505 l 2.020988,-3.77884 c 2.556138,-4.77946 8.325734,-9.75517 12.901195,-11.12601 4.700216,-1.40822 130.488856,-1.49908 138.388046,-0.1 17.85023,3.16166 34.33083,11.98753 47.03262,25.1874 8.28758,8.61257 11.44799,13.79839 26.18422,42.96485 17.34356,34.32699 19.46699,38.1833 23.7863,43.19772 4.55985,5.29366 12.76783,9.50409 21.06633,10.80636 7.71218,1.21026 114.36412,1.24914 121.7788,0.0444 7.94779,-1.29137 17.73019,-6.41921 22.61889,-11.85661 2.92689,-3.25542 8.70878,-13.63533 20.69341,-37.14982 9.14739,-17.94768 18.12713,-34.88924 19.95498,-37.64792 8.6122,-12.99792 24.06872,-25.43358 38.55591,-31.02043 15.39548,-5.93713 13.212,-5.77732 84.08684,-6.15425 57.09932,-0.30367 65.16767,-0.17478 69.59301,1.1117 6.23864,1.81362 11.78101,6.65281 14.64259,12.78481 l 2.12845,4.561 0.009,67.07399 c 0.007,54.80618 -0.24728,69.15452 -1.39183,78.44926 -10.02107,81.38015 -56.30817,135.84915 -130.86836,154.00118 -15.93873,3.88037 -28.69775,5.59092 -48.80274,6.54281 -20.81784,0.98563 -285.91532,0.90353 -306.04333,-0.0948 z"
     id="path5"
     transform="scale(0.03)" />
  <path
     style="fill:#ececec;stroke-width:0.912201"
     d="m 317.94293,352.03942 c -10.28414,-2.05204 -17.46775,-10.21123 -18.12866,-20.59064 -0.48069,-7.54901 1.54488,-13.01557 6.75228,-18.22298 7.08756,-7.08755 2.98865,-6.80717 95.34486,-6.52205 l 81.55495,0.25178 4.79301,2.65568 c 13.82821,7.66185 16.11077,25.75245 4.63699,36.75077 -6.8625,6.57811 -1.28514,6.18752 -90.61586,6.34596 -44.15051,0.0783 -82.10242,-0.22253 -84.33757,-0.66852 z"
     id="path6"
     transform="scale(0.03)" />
  <path
     style="fill:#333333;stroke-width:0.912201"
     d="m 344.81186,259.37265 c -8.08312,-1.8898 -13.71151,-6.02042 -17.11447,-12.56014 -2.53905,-4.87947 -2.68901,-15.02314 -0.29087,-19.67454 2.27208,-4.4069 6.67929,-8.90787 11.01993,-11.25439 3.63097,-1.96287 3.93204,-1.97252 61.57355,-1.97252 57.64151,0 57.94259,0.01 61.57355,1.97252 4.28462,2.31623 8.7709,6.86491 10.85958,11.01062 5.35397,10.62683 0.13992,24.96382 -11.09007,30.49425 l -4.33052,2.13264 -55.18814,0.13905 c -30.35348,0.0765 -56.00912,-0.0529 -57.01254,-0.28749 z"
     id="path7"
     transform="scale(0.03)" />
  <path
     style="fill:#ececec;stroke-width:0.912201"
     d="m 316.72219,351.13653 c -9.84667,-2.38856 -16.15998,-11.00424 -16.1435,-22.03083 0.0155,-10.35241 6.80456,-18.96004 16.38784,-20.77747 3.00966,-0.57077 35.34999,-0.9166 85.71599,-0.9166 h 80.88276 l 4.05545,2.61398 c 8.28055,5.33732 11.81559,11.1723 11.80023,19.47759 -0.0155,8.37311 -5.96448,17.79943 -13.218,20.94423 -2.16864,0.94023 -19.68058,1.22196 -84.37856,1.35747 -47.24609,0.099 -83.09977,-0.18263 -85.10221,-0.66837 z"
     id="path10"
     transform="scale(0.03)" />
  <path
     style="fill:#ececec;stroke-width:0.912201"
     d="m 338.9498,256.98975 c -3.51178,-1.65911 -6.56818,-4.00807 -8.87,-6.81692 l -3.51196,-4.28557 v -8.76657 c 0,-8.0896 0.19374,-9.04247 2.50882,-12.3393 1.37985,-1.965 4.24499,-5.00944 6.36698,-6.76543 l 3.85816,-3.1927 58.39927,-0.28136 c 38.75327,-0.1867 59.49535,0.0394 61.65747,0.67207 4.10881,1.20233 11.54646,8.46074 13.61533,13.28719 3.11384,7.2643 0.46368,18.34989 -5.82268,24.35619 -1.06086,1.0136 -3.53691,2.87352 -5.50233,4.13314 l -3.57349,2.29023 -56.88377,0.12019 -56.88376,0.12018 z"
     id="path11"
     transform="scale(0.03)" />
  <path
     style="fill:#ececec;stroke-width:0.912201"
     d="m 316.70012,351.13195 c -13.68029,-3.31549 -20.56149,-20.00017 -13.39912,-32.48854 3.47136,-6.05269 7.59249,-9.16345 13.66553,-10.31518 3.00966,-0.57077 35.34999,-0.9166 85.71599,-0.9166 h 80.88276 l 4.05545,2.61398 c 8.28055,5.33732 11.81559,11.1723 11.80023,19.47759 -0.0155,8.37311 -5.96448,17.79943 -13.218,20.94423 -2.16864,0.94023 -19.68058,1.22196 -84.37856,1.35747 -47.56233,0.0996 -83.09558,-0.18129 -85.12428,-0.67295 z"
     id="path12"
     transform="scale(0.03)" />
  <path
     style="fill:#ececec;stroke-width:0.912201"
     d="m 243.55758,731.86614 c -9.93332,-0.51914 -28.11372,-3.06006 -38.57519,-5.3913 -16.05049,-3.57673 -28.66032,-8.04945 -43.52287,-15.43761 -48.35116,-24.03533 -78.064491,-64.91 -89.443613,-123.04165 -3.508394,-17.92308 -3.98964,-29.83681 -4.024763,-99.63707 l -0.03219,-63.97901 2.964652,-4.40717 c 1.630559,-2.42394 4.743932,-5.65163 6.918606,-7.17264 l 3.953955,-2.76548 36.182873,-0.73561 c 19.90058,-0.40459 51.78151,-0.3803 70.8465,0.054 l 34.66363,0.78958 9.36144,3.24846 c 13.382,4.64362 22.64542,10.48346 33.02076,20.81692 10.22644,10.18515 11.47327,12.21576 31.73954,51.69172 8.02768,15.63682 15.94386,30.30777 17.59153,32.6021 3.32856,4.63494 10.1294,9.67688 16.38251,12.14551 3.76596,1.48674 9.22369,1.64197 66.09818,1.88007 60.01438,0.25124 62.1872,0.20062 68.06844,-1.58575 8.29987,-2.521 16.36879,-8.08598 20.27116,-13.98062 1.73313,-2.61793 7.55429,-13.17493 12.93591,-23.45999 28.46378,-54.39839 29.15769,-55.47433 42.66606,-66.15592 13.56834,-10.72899 26.96943,-16.37659 42.18374,-17.77742 12.90554,-1.18825 127.71485,-1.14261 132.018,0.0525 5.01673,1.39327 10.86187,6.26119 13.68475,11.39686 l 2.48724,4.52505 0.0213,69.05248 c 0.0176,57.11291 -0.22238,70.91383 -1.38807,79.81756 -5.99677,45.80436 -24.94371,84.93876 -53.98419,111.50299 -11.1466,10.19614 -22.38542,17.78455 -37.1948,25.11381 -24.8091,12.27819 -47.72531,18.17918 -79.81756,20.55326 -10.99703,0.81352 -300.96106,1.07444 -316.07754,0.28442 z"
     id="path13"
     transform="scale(0.03)" />
</svg>
