<?xml version="1.0" encoding="UTF-8" standalone="no"?>
<!-- Uploaded to: SVG Repo, www.svgrepo.com, Generator: SVG Repo Mixer Tools -->

<svg
   width="800px"
   height="800px"
   viewBox="0 0 24 24"
   fill="none"
   version="1.1"
   id="svg4"
   sodipodi:docname="00-matters_draft.svg"
   inkscape:version="1.4 (e7c3feb100, 2024-10-09)"
   xmlns:inkscape="http://www.inkscape.org/namespaces/inkscape"
   xmlns:sodipodi="http://sodipodi.sourceforge.net/DTD/sodipodi-0.dtd"
   xmlns="http://www.w3.org/2000/svg"
   xmlns:svg="http://www.w3.org/2000/svg">
  <defs
     id="defs4" />
  <sodipodi:namedview
     id="namedview4"
     pagecolor="#505050"
     bordercolor="#ffffff"
     borderopacity="1"
     inkscape:showpageshadow="0"
     inkscape:pageopacity="0"
     inkscape:pagecheckerboard="1"
     inkscape:deskcolor="#505050"
     inkscape:zoom="1.0775"
     inkscape:cx="399.53596"
     inkscape:cy="400"
     inkscape:window-width="1897"
     inkscape:window-height="1080"
     inkscape:window-x="0"
     inkscape:window-y="0"
     inkscape:window-maximized="1"
     inkscape:current-layer="svg4" />
  <path
     opacity="0.4"
     d="M20.5 10.19H17.61C15.24 10.19 13.31 8.26 13.31 5.89V3C13.31 2.45 12.86 2 12.31 2H8.07C4.99 2 2.5 4 2.5 7.57V16.43C2.5 20 4.99 22 8.07 22H15.93C19.01 22 21.5 20 21.5 16.43V11.19C21.5 10.64 21.05 10.19 20.5 10.19Z"
     fill="#292D32"
     id="path1" />
  <path
     opacity="0.4"
     d="m 14.174914,10.77176 c -0.996156,-0.9769103 -1.971774,-1.0020883 -2.993605,0 l -0.621314,0.60931 c -0.05135,0.05036 -0.07189,0.130926 -0.05135,0.201425 0.390247,1.334439 1.47883,2.401991 2.83956,2.784718 0.02054,0.005 0.04108,0.01007 0.06162,0.01007 0.05648,0 0.107832,-0.02014 0.14891,-0.06043 l 0.61618,-0.60933 c 0.508348,-0.493491 0.75482,-0.971875 0.75482,-1.455294 0.0051,-0.498527 -0.241337,-0.981946 -0.75482,-1.480473 z"
     fill="#292d32"
     id="path2-7"
     style="stroke-width:0.508498;fill:#1a1a1a" />
  <path
     d="m 12.423784,14.825253 c -0.14891,-0.0705 -0.292686,-0.140997 -0.431326,-0.221567 -0.112966,-0.06546 -0.220798,-0.135962 -0.328629,-0.211496 -0.08729,-0.05539 -0.189989,-0.135962 -0.28755,-0.216532 -0.01027,-0.005 -0.04621,-0.03525 -0.08729,-0.07553 -0.16945,-0.140997 -0.359438,-0.32228 -0.528888,-0.523705 -0.0154,-0.01007 -0.04108,-0.04532 -0.07702,-0.09064 -0.05135,-0.06043 -0.138641,-0.161145 -0.215663,-0.276964 -0.06162,-0.07553 -0.133506,-0.186318 -0.200259,-0.297102 -0.08216,-0.135961 -0.154044,-0.271923 -0.225932,-0.41292 -0.071888,-0.151069 -0.1283707,-0.297102 -0.179719,-0.433064 l -3.2246624,3.16237 c -0.066753,0.06546 -0.1283708,0.191353 -0.1437752,0.276959 l -0.2772808,1.928642 c -0.051348,0.342422 0.046213,0.664702 0.2618763,0.881234 0.1848538,0.176246 0.4415953,0.271923 0.7188761,0.271923 0.061618,0 0.1232359,-0.005 0.1848538,-0.01511 l 1.9717744,-0.27192 c 0.092427,-0.01511 0.2207874,-0.07553 0.2824054,-0.140998 l 3.2246724,-3.162369 c -0.143775,-0.05036 -0.282416,-0.105748 -0.43646,-0.171211 z"
     fill="#292d32"
     id="path3"
     style="stroke-width:0.508498;fill:#1a1a1a" />
  <path
     d="M15.7997 2.20999C15.3897 1.79999 14.6797 2.07999 14.6797 2.64999V6.13999C14.6797 7.59999 15.9197 8.80999 17.4297 8.80999C18.3797 8.81999 19.6997 8.81999 20.8297 8.81999C21.3997 8.81999 21.6997 8.14999 21.2997 7.74999C19.8597 6.29999 17.2797 3.68999 15.7997 2.20999Z"
     fill="#292D32"
     id="path2" />
</svg>
