<?xml version="1.0" encoding="UTF-8" standalone="no"?>
<!-- Uploaded to: SVG Repo, www.svgrepo.com, Generator: SVG Repo Mixer Tools -->

<svg
   width="800px"
   height="800px"
   viewBox="0 0 24 24"
   fill="none"
   version="1.1"
   id="svg4"
   sodipodi:docname="00-matters_shared.svg"
   inkscape:version="1.4 (e7c3feb100, 2024-10-09)"
   xmlns:inkscape="http://www.inkscape.org/namespaces/inkscape"
   xmlns:sodipodi="http://sodipodi.sourceforge.net/DTD/sodipodi-0.dtd"
   xmlns="http://www.w3.org/2000/svg"
   xmlns:svg="http://www.w3.org/2000/svg">
  <defs
     id="defs4" />
  <sodipodi:namedview
     id="namedview4"
     pagecolor="#505050"
     bordercolor="#ffffff"
     borderopacity="1"
     inkscape:showpageshadow="0"
     inkscape:pageopacity="0"
     inkscape:pagecheckerboard="1"
     inkscape:deskcolor="#505050"
     inkscape:zoom="0.83625"
     inkscape:cx="400"
     inkscape:cy="400.59791"
     inkscape:window-width="1897"
     inkscape:window-height="1080"
     inkscape:window-x="0"
     inkscape:window-y="0"
     inkscape:window-maximized="1"
     inkscape:current-layer="svg4"
     showgrid="false" />
  <path
     opacity="0.4"
     d="M20.5 10.19H17.61C15.24 10.19 13.31 8.26 13.31 5.89V3C13.31 2.45 12.86 2 12.31 2H8.07C4.99 2 2.5 4 2.5 7.57V16.43C2.5 20 4.99 22 8.07 22H15.93C19.01 22 21.5 20 21.5 16.43V11.19C21.5 10.64 21.05 10.19 20.5 10.19Z"
     fill="#292D32"
     id="path1" />
  <path
     d="m 10.89583,18.887713 c -1.3481993,0 -2.4026567,-0.662671 -3.1181814,-1.317896 v 0.528648 c 0,0.305275 -0.2560825,0.55843 -0.5648879,0.55843 -0.3088053,0 -0.5648878,-0.253155 -0.5648878,-0.55843 v -2.047579 c 0,-0.305275 0.2560825,-0.55843 0.5648878,-0.55843 h 1.867896 c 0.3088054,0 0.5648879,0.253155 0.5648879,0.55843 0,0.305275 -0.2560825,0.558431 -0.5648879,0.558431 H 8.4027912 c 0.5573561,0.550984 1.4235175,1.161535 2.4930388,1.161535 1.973341,0 3.577622,-1.585943 3.577622,-3.536726 0,-0.305276 0.256083,-0.558431 0.564888,-0.558431 0.308806,0 0.564888,0.253155 0.564888,0.558431 0,2.56878 -2.108914,4.653587 -4.707398,4.653587 z M 6.7533186,14.792556 c -0.3088054,0 -0.5648879,-0.253155 -0.5648879,-0.55843 0,-2.56878 2.1089148,-4.6535877 4.7073993,-4.6535877 1.619345,0 2.809375,0.6924537 3.577622,1.3551247 v -0.565876 c 0,-0.305276 0.256083,-0.5584308 0.564888,-0.5584308 0.308806,0 0.564888,0.2531548 0.564888,0.5584308 v 2.040132 c 0,0.02234 0,0.04467 0,0.05957 -0.0075,0.0819 -0.03013,0.156361 -0.06779,0.223373 -0.03766,0.06701 -0.09038,0.126577 -0.158169,0.178697 -0.05272,0.03723 -0.112978,0.06701 -0.180764,0.08935 -0.05272,0.01489 -0.105446,0.02234 -0.158169,0.02234 h -1.830232 c -0.308805,0 -0.564888,-0.253155 -0.564888,-0.55843 0,-0.305275 0.256083,-0.55843 0.564888,-0.55843 h 0.625143 c -0.602547,-0.550993 -1.574154,-1.161544 -2.922354,-1.161544 -1.9733412,0 -3.5776228,1.585943 -3.5776228,3.536726 -0.015064,0.29783 -0.2711462,0.550985 -0.5799516,0.550985 z"
     fill="#292d32"
     id="path2-5"
     style="stroke-width:0.748867;fill:#1a1a1a" />
  <path
     d="M15.7997 2.20999C15.3897 1.79999 14.6797 2.07999 14.6797 2.64999V6.13999C14.6797 7.59999 15.9197 8.80999 17.4297 8.80999C18.3797 8.81999 19.6997 8.81999 20.8297 8.81999C21.3997 8.81999 21.6997 8.14999 21.2997 7.74999C19.8597 6.29999 17.2797 3.68999 15.7997 2.20999Z"
     fill="#292D32"
     id="path2" />
</svg>
