<?xml version="1.0" encoding="UTF-8" standalone="no"?>
<!-- Uploaded to: SVG Repo, www.svgrepo.com, Generator: SVG Repo Mixer Tools -->

<svg
   width="800px"
   height="800px"
   viewBox="0 0 24 24"
   fill="none"
   version="1.1"
   id="svg3"
   sodipodi:docname="00-pendings-red.svg"
   inkscape:version="1.3.2 (091e20ef0f, 2023-11-25)"
   xmlns:inkscape="http://www.inkscape.org/namespaces/inkscape"
   xmlns:sodipodi="http://sodipodi.sourceforge.net/DTD/sodipodi-0.dtd"
   xmlns="http://www.w3.org/2000/svg"
   xmlns:svg="http://www.w3.org/2000/svg">
  <defs
     id="defs3" />
  <sodipodi:namedview
     id="namedview3"
     pagecolor="#505050"
     bordercolor="#ffffff"
     borderopacity="1"
     inkscape:showpageshadow="0"
     inkscape:pageopacity="0"
     inkscape:pagecheckerboard="1"
     inkscape:deskcolor="#505050"
     inkscape:zoom="1.09625"
     inkscape:cx="400"
     inkscape:cy="400"
     inkscape:window-width="1890"
     inkscape:window-height="1076"
     inkscape:window-x="0"
     inkscape:window-y="0"
     inkscape:window-maximized="1"
     inkscape:current-layer="svg3" />
  <path
     d="M19 8C20.6569 8 22 6.65685 22 5C22 3.34315 20.6569 2 19 2C17.3431 2 16 3.34315 16 5C16 6.65685 17.3431 8 19 8Z"
     fill="#292D32"
     id="path1"
     style="fill:#ff0000" />
  <path
     d="M20.34 12.72H17.03C16.1 12.72 15.27 13.24 14.85 14.06L14.05 15.64C13.86 16.02 13.48 16.25 13.06 16.25H9.95C9.66 16.25 9.23 16.19 8.96 15.63L8.17 14.06C7.75 13.23 6.92 12.71 5.99 12.71H2.66C2.3 12.72 2 13.02 2 13.38V16.47C2 19.94 4.07 22 7.53 22H15.49C18.75 22 20.76 20.21 21 17.04V13.38C21 13.02 20.7 12.72 20.34 12.72Z"
     fill="#292D32"
     id="path2" />
  <path
     opacity="0.4"
     d="M19 9.5C16.52 9.5 14.5 7.48 14.5 5C14.5 4.28 14.69 3.61 14.99 3H7.52C4.07 3 2 5.06 2 8.52V16.47C2 19.94 4.07 22 7.52 22H15.47C18.93 22 20.99 19.94 20.99 16.48V9.01C20.39 9.31 19.72 9.5 19 9.5Z"
     fill="#292D32"
     id="path3" />
</svg>
