<?xml version="1.0" encoding="UTF-8" standalone="no"?>
<!-- Uploaded to: SVG Repo, www.svgrepo.com, Generator: SVG Repo Mixer Tools -->

<svg
   width="800px"
   height="800px"
   viewBox="0 0 24 24"
   fill="none"
   version="1.1"
   id="svg3"
   sodipodi:docname="00-pendings-dark.svg"
   inkscape:version="1.3.2 (091e20ef0f, 2023-11-25)"
   xmlns:inkscape="http://www.inkscape.org/namespaces/inkscape"
   xmlns:sodipodi="http://sodipodi.sourceforge.net/DTD/sodipodi-0.dtd"
   xmlns="http://www.w3.org/2000/svg"
   xmlns:svg="http://www.w3.org/2000/svg">
  <defs
     id="defs3" />
  <sodipodi:namedview
     id="namedview3"
     pagecolor="#505050"
     bordercolor="#ffffff"
     borderopacity="1"
     inkscape:showpageshadow="0"
     inkscape:pageopacity="0"
     inkscape:pagecheckerboard="1"
     inkscape:deskcolor="#505050"
     inkscape:zoom="1.09625"
     inkscape:cx="400"
     inkscape:cy="400"
     inkscape:window-width="1037"
     inkscape:window-height="1076"
     inkscape:window-x="0"
     inkscape:window-y="0"
     inkscape:window-maximized="1"
     inkscape:current-layer="svg3" />
  <path
     d="M19 8C20.6569 8 22 6.65685 22 5C22 3.34315 20.6569 2 19 2C17.3431 2 16 3.34315 16 5C16 6.65685 17.3431 8 19 8Z"
     fill="#292D32"
     id="path1"
     style="fill:#ececec" />
  <path
     d="M20.34 12.72H17.03C16.1 12.72 15.27 13.24 14.85 14.06L14.05 15.64C13.86 16.02 13.48 16.25 13.06 16.25H9.95C9.66 16.25 9.23 16.19 8.96 15.63L8.17 14.06C7.75 13.23 6.92 12.71 5.99 12.71H2.66C2.3 12.72 2 13.02 2 13.38V16.47C2 19.94 4.07 22 7.53 22H15.49C18.75 22 20.76 20.21 21 17.04V13.38C21 13.02 20.7 12.72 20.34 12.72Z"
     fill="#292D32"
     id="path2" />
  <path
     opacity="0.4"
     d="M19 9.5C16.52 9.5 14.5 7.48 14.5 5C14.5 4.28 14.69 3.61 14.99 3H7.52C4.07 3 2 5.06 2 8.52V16.47C2 19.94 4.07 22 7.52 22H15.47C18.93 22 20.99 19.94 20.99 16.48V9.01C20.39 9.31 19.72 9.5 19 9.5Z"
     fill="#292D32"
     id="path3"
     style="fill:#ececec" />
  <path
     style="fill:#666666;stroke-width:0.912201"
     d="m 319.72634,539.66871 c -7.05438,-2.24978 -11.59847,-5.49846 -16.09193,-11.50451 -1.31375,-1.75599 -9.66127,-17.46933 -18.55005,-34.91853 -8.88878,-17.4492 -17.96699,-34.12778 -20.17381,-37.06349 -10.99787,-14.63041 -26.85117,-25.3599 -44.93934,-30.41489 -6.75663,-1.88824 -8.92981,-1.95842 -70.23967,-2.26831 -69.798241,-0.35278 -68.180415,-0.46735 -75.209313,5.32645 -1.87722,1.54737 -4.206391,4.31496 -5.175936,6.1502 -1.753592,3.31935 -1.76302,2.88468 -1.803125,-83.13017 -0.0255,-54.70218 0.313062,-89.72107 0.921615,-95.32497 5.357415,-49.33414 26.419543,-91.55514 58.573789,-117.41662 24.11941,-19.39911 52.24326,-30.85878 90.06519,-36.69903 8.4351,-1.30249 25.8102,-1.51815 145.59806,-1.80713 l 136.01995,-0.32815 -4.29228,10.75462 c -9.29157,23.28071 -12.69157,43.75405 -10.98318,66.13612 1.62108,21.23836 6.23395,38.05846 15.5825,56.81918 7.19708,14.44312 15.60573,26.1183 27.31098,37.92054 20.06673,20.233 42.39492,33.27039 68.58122,40.04446 14.00743,3.62355 23.48257,4.80539 38.60237,4.81494 21.58633,0.0136 39.36083,-4.02772 62.71379,-14.259 l 3.42075,-1.49868 -0.0365,69.11145 c -0.0335,63.48676 -0.15357,68.88872 -1.47467,66.37484 -2.3048,-4.38569 -6.83605,-8.74539 -11.25961,-10.83331 -4.02334,-1.899 -5.21065,-1.94297 -59.74915,-2.21238 -32.13307,-0.15873 -59.91086,0.10957 -65.74211,0.63499 -19.6316,1.76889 -37.08755,9.67483 -50.56438,22.90101 -9.41042,9.23539 -12.80815,14.77172 -30.12784,49.09099 -16.86021,33.40879 -18.96499,36.34987 -29.6204,41.38951 l -6.38541,3.02007 -60.66134,0.17673 c -47.06659,0.13714 -61.47908,-0.084 -64.31015,-0.98693 z"
     id="path4"
     transform="scale(0.03)" />
</svg>
