<?xml version="1.0" encoding="UTF-8" standalone="no"?>
<!-- Uploaded to: SVG Repo, www.svgrepo.com, Generator: SVG Repo Mixer Tools -->

<svg
   width="800px"
   height="800px"
   viewBox="0 0 24 24"
   fill="none"
   version="1.1"
   id="svg3"
   sodipodi:docname="00-pendings-dark-red.svg"
   inkscape:version="1.3.2 (091e20ef0f, 2023-11-25)"
   xmlns:inkscape="http://www.inkscape.org/namespaces/inkscape"
   xmlns:sodipodi="http://sodipodi.sourceforge.net/DTD/sodipodi-0.dtd"
   xmlns="http://www.w3.org/2000/svg"
   xmlns:svg="http://www.w3.org/2000/svg">
  <defs
     id="defs3" />
  <sodipodi:namedview
     id="namedview3"
     pagecolor="#505050"
     bordercolor="#ffffff"
     borderopacity="1"
     inkscape:showpageshadow="0"
     inkscape:pageopacity="0"
     inkscape:pagecheckerboard="1"
     inkscape:deskcolor="#505050"
     inkscape:zoom="1.09625"
     inkscape:cx="400"
     inkscape:cy="400"
     inkscape:window-width="1890"
     inkscape:window-height="1076"
     inkscape:window-x="0"
     inkscape:window-y="0"
     inkscape:window-maximized="1"
     inkscape:current-layer="svg3"
     showgrid="false" />
  <path
     d="M19 8C20.6569 8 22 6.65685 22 5C22 3.34315 20.6569 2 19 2C17.3431 2 16 3.34315 16 5C16 6.65685 17.3431 8 19 8Z"
     fill="#292D32"
     id="path1"
     style="fill:#ff0000" />
  <path
     d="M20.34 12.72H17.03C16.1 12.72 15.27 13.24 14.85 14.06L14.05 15.64C13.86 16.02 13.48 16.25 13.06 16.25H9.95C9.66 16.25 9.23 16.19 8.96 15.63L8.17 14.06C7.75 13.23 6.92 12.71 5.99 12.71H2.66C2.3 12.72 2 13.02 2 13.38V16.47C2 19.94 4.07 22 7.53 22H15.49C18.75 22 20.76 20.21 21 17.04V13.38C21 13.02 20.7 12.72 20.34 12.72Z"
     fill="#292D32"
     id="path2" />
  <path
     opacity="0.4"
     d="M19 9.5C16.52 9.5 14.5 7.48 14.5 5C14.5 4.28 14.69 3.61 14.99 3H7.52C4.07 3 2 5.06 2 8.52V16.47C2 19.94 4.07 22 7.52 22H15.47C18.93 22 20.99 19.94 20.99 16.48V9.01C20.39 9.31 19.72 9.5 19 9.5Z"
     fill="#292D32"
     id="path3"
     style="fill:#ececec" />
  <path
     style="fill:#4d4d4d;stroke-width:0.912201"
     d="m 319.72634,539.66871 c -7.05438,-2.24978 -11.59847,-5.49846 -16.09193,-11.50451 -1.31375,-1.75599 -9.66127,-17.46933 -18.55005,-34.91853 -8.88878,-17.4492 -17.96699,-34.12778 -20.17381,-37.06349 -10.99787,-14.63041 -26.85117,-25.3599 -44.93934,-30.41489 -6.75663,-1.88824 -8.92981,-1.95842 -70.23967,-2.26831 -69.798241,-0.35278 -68.180415,-0.46735 -75.209313,5.32645 -1.87722,1.54737 -4.206391,4.31496 -5.175936,6.1502 -1.753592,3.31935 -1.76302,2.88468 -1.803125,-83.13017 -0.0255,-54.70218 0.313062,-89.72107 0.921615,-95.32497 5.357415,-49.33414 26.419543,-91.55514 58.573789,-117.41662 24.11941,-19.39911 52.24326,-30.85878 90.06519,-36.69903 8.4351,-1.30249 25.8102,-1.51815 145.59806,-1.80713 l 136.01995,-0.32815 -4.29228,10.75462 c -9.29157,23.28071 -12.69157,43.75405 -10.98318,66.13612 1.62108,21.23836 6.23395,38.05846 15.5825,56.81918 7.19708,14.44312 15.60573,26.1183 27.31098,37.92054 20.06673,20.233 42.39492,33.27039 68.58122,40.04446 14.00743,3.62355 23.48257,4.80539 38.60237,4.81494 21.58633,0.0136 39.36083,-4.02772 62.71379,-14.259 l 3.42075,-1.49868 -0.0365,69.11145 c -0.0335,63.48676 -0.15357,68.88872 -1.47467,66.37484 -2.3048,-4.38569 -6.83605,-8.74539 -11.25961,-10.83331 -4.02334,-1.899 -5.21065,-1.94297 -59.74915,-2.21238 -32.13307,-0.15873 -59.91086,0.10957 -65.74211,0.63499 -19.6316,1.76889 -37.08755,9.67483 -50.56438,22.90101 -9.41042,9.23539 -12.80815,14.77172 -30.12784,49.09099 -16.86021,33.40879 -18.96499,36.34987 -29.6204,41.38951 l -6.38541,3.02007 -60.66134,0.17673 c -47.06659,0.13714 -61.47908,-0.084 -64.31015,-0.98693 z"
     id="path4"
     transform="scale(0.03)" />
  <path
     style="fill:#ececec;stroke-width:0.912201"
     d="M 226.22577,731.87361 C 176.61312,727.56536 132.2669,705.85607 105.75986,672.90059 86.377817,648.80342 74.765237,620.27682 69.120983,582.89624 67.14738,569.82552 66.244003,446.26202 68.074253,439.72501 c 0.822662,-2.93826 2.655209,-5.65309 6.321869,-9.36556 2.839867,-2.87535 5.41678,-4.97452 5.726472,-4.66483 0.309693,0.30969 1.103807,0.11431 1.764697,-0.43418 2.185254,-1.8136 132.935969,-1.82692 132.935969,-0.0136 0,0.41296 0.77774,0.75083 1.72831,0.75083 0.95058,0 4.54237,0.86917 7.98176,1.93149 3.4394,1.06232 6.45869,1.9566 6.70954,1.9873 0.25086,0.0307 0.99853,0.59823 1.66151,1.26121 0.66297,0.66297 1.8297,1.2054 2.59272,1.2054 0.76302,0 2.43103,0.82098 3.70667,1.82441 1.27564,1.00342 2.87972,1.8244 3.56463,1.8244 0.68491,0 1.24528,0.41049 1.24528,0.9122 0,0.50171 0.39266,0.9122 0.87256,0.9122 0.47991,0 2.63498,1.6396 4.78905,3.64355 2.15408,2.00396 4.59813,3.86717 5.43125,4.14048 0.83311,0.2733 2.23726,1.60976 3.12032,2.9699 0.88308,1.36014 3.13019,4.32018 4.99359,6.57788 3.76594,4.56282 14.54466,23.23841 14.54466,25.20059 0,0.68928 0.4789,1.25323 1.06424,1.25323 0.58532,0 0.82558,0.23864 0.53391,0.53032 -0.61106,0.61106 6.46874,14.18403 7.92387,15.19117 0.53256,0.3686 0.658,0.67647 0.27876,0.68416 -1.44516,0.0293 13.86082,28.91197 17.51317,33.04771 2.38118,2.69634 6.06749,5.41735 9.88648,7.29761 l 6.08957,2.99818 h 60.68111 c 33.37461,0 61.87812,-0.29305 63.34113,-0.65121 5.82248,-1.42543 12.4328,-5.52892 17.01408,-10.56183 3.6324,-3.99048 7.57241,-10.73796 16.86869,-28.88853 6.67113,-13.02507 11.92925,-24.00569 11.6847,-24.40137 -0.24455,-0.39568 0.0143,-0.71941 0.57525,-0.71941 0.56093,0 0.76617,-0.41049 0.4561,-0.9122 -0.31008,-0.50171 -0.15672,-0.9122 0.3408,-0.9122 0.4975,0 1.1894,-0.92361 1.53755,-2.05246 0.73221,-2.3742 6.78396,-12.90231 9.22929,-16.05602 3.73591,-4.81815 12.17623,-12.69417 17.68975,-16.50704 3.22643,-2.23124 6.07148,-4.31675 6.32234,-4.63447 0.44639,-0.56538 5.49377,-3.00785 11.8586,-5.73847 5.41938,-2.325 12.43267,-3.9059 20.98062,-4.72932 1.75599,-0.16915 30.11402,-0.35149 63.01784,-0.4052 51.90104,-0.0847 60.17754,0.0861 62.48575,1.28983 1.46333,0.76311 3.09319,1.39 3.62191,1.39309 1.56806,0.009 6.44584,5.6357 8.58126,9.89852 l 1.98554,3.9636 -0.3607,66.73196 c -0.33871,62.66599 -0.4789,67.46823 -2.30096,78.81607 -4.88314,30.41248 -13.7855,54.29957 -28.35907,76.09388 -25.75099,38.50983 -68.39897,62.33807 -123.00596,68.72579 -9.94544,1.16339 -33.89934,1.34057 -163.53915,1.20969 -83.53785,-0.0843 -153.52897,-0.29593 -155.53581,-0.4702 z"
     id="path5"
     transform="scale(0.03)" />
</svg>
