<?xml version="1.0" encoding="UTF-8" standalone="no"?>
<!-- Created with Inkscape (http://www.inkscape.org/) -->

<svg
   width="512"
   height="512"
   viewBox="0 0 512 512"
   version="1.1"
   id="svg1"
   xml:space="preserve"
   sodipodi:docname="sake.svg"
   inkscape:version="1.3.2 (091e20ef0f, 2023-11-25)"
   xmlns:inkscape="http://www.inkscape.org/namespaces/inkscape"
   xmlns:sodipodi="http://sodipodi.sourceforge.net/DTD/sodipodi-0.dtd"
   xmlns="http://www.w3.org/2000/svg"
   xmlns:svg="http://www.w3.org/2000/svg"><sodipodi:namedview
     id="namedview1"
     pagecolor="#505050"
     bordercolor="#ffffff"
     borderopacity="1"
     inkscape:showpageshadow="0"
     inkscape:pageopacity="0"
     inkscape:pagecheckerboard="1"
     inkscape:deskcolor="#505050"
     inkscape:zoom="1.2111966"
     inkscape:cx="100.31402"
     inkscape:cy="313.32651"
     inkscape:window-width="1890"
     inkscape:window-height="1076"
     inkscape:window-x="0"
     inkscape:window-y="0"
     inkscape:window-maximized="1"
     inkscape:current-layer="svg1" /><defs
     id="defs1" /><circle
     style="fill:#ffcc00;stroke-width:3.403"
     id="path4"
     cx="256"
     cy="256"
     r="256" /><path
     style="display:inline;fill:#aa8800"
     d="m 144.40251,435.29647 73.30102,73.22348 c 145.97819,17.79917 241.88417,-56.34555 283.32042,-181 L 271.5325,98.630559 195.01026,163.95211 Z"
     id="path5"
     sodipodi:nodetypes="cccccc" /><path
     style="fill:#ffffff"
     d="m 143.84721,434.76397 c -20.16154,-21.02085 -29.73803,-48.42305 -26.55188,-83.51939 l 47.65849,-204.11687 -28.22691,-48.405931 134.45097,0.03877 -27.39567,48.031351 30.50342,132.85462 -18.32668,-0.32782 -0.28335,122.73033 c 1.54448,10.24136 7.12498,18.29006 14.4236,25.40536 l -5.57982,7.07868 z"
     id="path1"
     sodipodi:nodetypes="cccccccccccc" /><path
     style="fill:#ff6600"
     d="m 255.92992,279.34024 -0.35839,122.63666 c 4.42827,20.40446 16.36017,29.19673 31.95002,32.32817 l 25.4115,-0.1919 -0.0173,-154.66409 z"
     id="path2"
     sodipodi:nodetypes="cccccc" /><path
     style="fill:#d45500"
     d="m 313.029,434.42883 30.27618,-0.22374 c 16.10681,-3.51998 27.05488,-13.3828 29.93593,-33.16428 l 0.0605,-121.89368 -60.29315,0.4753 z"
     id="path3"
     sodipodi:nodetypes="cccccc" /></svg>
