<?xml version="1.0" encoding="UTF-8" standalone="no"?>
<!-- Uploaded to: SVG Repo, www.svgrepo.com, Generator: SVG Repo Mixer Tools -->

<svg
   height="800px"
   width="800px"
   version="1.1"
   id="_x34_"
   viewBox="0 0 512 512"
   xml:space="preserve"
   sodipodi:docname="sake_snake.svg"
   inkscape:version="1.4 (e7c3feb100, 2024-10-09)"
   xmlns:inkscape="http://www.inkscape.org/namespaces/inkscape"
   xmlns:sodipodi="http://sodipodi.sourceforge.net/DTD/sodipodi-0.dtd"
   xmlns="http://www.w3.org/2000/svg"
   xmlns:svg="http://www.w3.org/2000/svg"><defs
   id="defs4" /><sodipodi:namedview
   id="namedview4"
   pagecolor="#505050"
   bordercolor="#ffffff"
   borderopacity="1"
   inkscape:showpageshadow="0"
   inkscape:pageopacity="0"
   inkscape:pagecheckerboard="1"
   inkscape:deskcolor="#505050"
   inkscape:zoom="1.0775"
   inkscape:cx="399.53596"
   inkscape:cy="400"
   inkscape:window-width="1897"
   inkscape:window-height="1080"
   inkscape:window-x="0"
   inkscape:window-y="0"
   inkscape:window-maximized="1"
   inkscape:current-layer="_x34_" />
<g
   id="g4"
   transform="translate(82.561485,-0.59396752)">
	<path
   style="fill:#eeb248"
   d="m 427.244,308.272 c 0,22.872 -3.919,44.845 -11.243,65.34 -0.515,1.542 -1.092,3.148 -1.735,4.69 -1.156,3.084 -2.441,6.168 -3.79,9.252 -0.707,1.542 -1.414,3.02 -2.12,4.562 -2.121,4.433 -4.433,8.866 -6.81,13.171 -1.67,2.891 -3.406,5.782 -5.204,8.609 -1.8,2.763 -3.662,5.526 -5.59,8.288 -0.964,1.349 -1.927,2.698 -2.956,4.112 -1.992,2.57 -3.918,5.076 -5.91,7.517 -8.095,9.894 -17.154,19.017 -27.049,27.305 -2.441,2.056 -4.946,4.112 -7.516,6.039 -2.571,1.992 -5.204,3.919 -7.838,5.718 -2.634,1.863 -5.333,3.598 -8.031,5.333 -0.128,0.064 -0.193,0.129 -0.322,0.193 -2.698,1.671 -5.396,3.341 -8.159,4.883 -2.506,1.414 -5.011,2.763 -7.518,4.112 -0.385,0.193 -0.771,0.385 -1.156,0.578 -2.698,1.349 -5.396,2.634 -8.095,3.919 -0.256,0.129 -0.513,0.257 -0.771,0.321 -12.014,5.525 -24.67,9.958 -37.777,13.171 -6.552,1.671 -13.235,3.02 -20.045,3.983 -4.628,0.705 -9.339,1.228 -14.088,1.65 -1.644,0.149 -3.285,0.292 -4.94,0.404 -0.535,0.034 -1.058,0.101 -1.595,0.13 v -0.069 c -4.431,0.268 -8.868,0.518 -13.363,0.518 -34.758,0 -67.524,-7.903 -96.5,-21.973 C 73.564,469.019 38.614,434.133 18.633,391.537 6.617,366.095 0,337.89 0,308.272 0,195.775 95.664,104.544 213.622,104.544 c 4.513,0 8.955,0.197 13.363,0.463 v -0.013 c 0.129,0.013 0.249,0.017 0.373,0.026 0.364,0.022 0.741,0.013 1.104,0.038 6.489,0.385 12.85,1.092 19.145,2.12 2.249,0.257 4.433,0.643 6.618,1.092 1.131,0.191 2.212,0.502 3.329,0.716 3.396,0.654 6.77,1.378 10.098,2.175 13.107,3.212 25.763,7.645 37.777,13.171 2.956,1.349 5.911,2.763 8.866,4.24 0.385,0.193 0.771,0.385 1.156,0.578 2.506,1.349 5.012,2.698 7.518,4.112 2.763,1.542 5.461,3.212 8.159,4.883 0.129,0.064 0.194,0.128 0.322,0.193 2.698,1.735 5.397,3.469 8.031,5.332 2.634,1.799 5.267,3.726 7.838,5.718 2.57,1.927 5.075,3.983 7.516,6.039 9.895,8.288 18.954,17.411 27.049,27.305 1.992,2.441 3.918,4.947 5.91,7.517 1.029,1.413 1.992,2.763 2.956,4.112 1.927,2.763 3.79,5.525 5.59,8.288 1.798,2.827 3.534,5.718 5.204,8.609 2.377,4.305 4.689,8.738 6.81,13.171 0.706,1.542 1.413,3.02 2.12,4.562 1.349,3.084 2.633,6.168 3.79,9.252 0.643,1.542 1.221,3.148 1.735,4.69 1.735,4.754 3.212,9.573 4.497,14.456 0.385,1.285 0.707,2.57 1.027,3.855 3.729,15.097 5.721,30.838 5.721,47.028 z"
   id="path1" />
	<g
   id="g3">
		<path
   style="fill:#73b431"
   d="m 306.587,83.471 c -15.097,15.098 -34.051,23.514 -52.361,24.799 -0.129,0 -0.321,0.064 -0.45,0 -8.61,0.578 -17.09,-0.45 -24.928,-3.148 -0.129,0.064 -0.257,0 -0.385,-0.064 -0.515,-0.129 -0.964,-0.321 -1.478,-0.514 l 93.994,-93.929 6.682,-6.746 c 2.056,5.461 3.277,11.179 3.662,17.09 1.67,21.201 -6.81,44.523 -24.736,62.512 z"
   id="path2" />
		<path
   style="fill:#82ba46"
   d="m 327.661,3.869 -6.682,6.746 -93.994,93.929 C 217.669,79.616 225.121,47.942 248.057,24.942 266.046,7.017 289.368,-1.464 310.57,0.207 c 5.912,0.385 11.63,1.606 17.091,3.662 z"
   id="path3" />
	</g>
	<path
   style="fill:#e9ac34"
   d="M 226.98,104.978 V 511.564 C 338.729,504.982 427.244,416.508 427.244,308.27 427.244,200.034 338.729,111.559 226.98,104.978 Z"
   id="path4" />
</g><g
   id="g16"
   transform="matrix(2.4320854,0,0,2.277472,-9.2198326,233.4659)"><path
     d="m 48.65,76.52 c 0,0 8.99,-6.82 22.43,-6.57 19.9,0.38 24.12,9.85 24.12,9.85 l 3.19,15.02 c 0,0 6.01,1.78 7.88,1.97 1.88,0.19 5.54,1.17 9.95,-1.92 4.41,-3.1 3.28,-6.52 5.44,-6.43 2.82,0.12 0.84,9.57 -1.6,12.58 -2.44,3 -13.33,8.73 -17.93,9.95 -4.6,1.22 -6.01,3.14 -10.79,3.24 -4.79,0.09 -16.8,-3.14 -16.8,-3.14 L 48.64,98.87 V 76.52 Z"
     fill="#96a820"
     id="path1-3" /><path
     d="m 58.13,96.23 c 0,0 3.94,-7.04 10.98,-6.48 7.04,0.56 9.57,5.54 9.57,5.54 l -15.58,5.07 z"
     fill="#70853b"
     id="path2-6" /><path
     d="m 94.26,105.34 c 4.97,1.6 6.85,1.41 6.85,1.41 0,0 2.91,-3.1 4.13,-5.73 1.22,-2.63 1.36,-4.13 1.36,-4.13 0,0 -1.92,-0.47 -3.71,-1.03 -1.78,-0.56 -5.35,-2.63 -5.35,-2.63 l -4.13,11.36 z"
     fill="#70853b"
     id="path3-7" /><path
     d="M 50.62,5.71 C 65.26,6.41 77.9,19.46 73.57,36.54 70.33,49.3 59.06,66.18 56.25,70.51 c -5.16,7.98 -10.7,23.46 4.83,25.11 22.21,2.35 5.81,-9.83 16.67,-17.34 5.7,-3.94 12.19,-2.7 16.37,0.3 5.45,3.92 20.62,46.06 -34.91,43.13 C 47.67,121.1 38.5,114.74 33.45,109.88 18.5,95.52 29.97,71.58 30.92,69.48 32.18,66.67 44,51.32 43.16,46.4 42.32,41.47 38.23,42.74 32.6,40.77 26.97,38.8 20.72,32.57 22.46,24.02 24.08,16.06 30.22,4.73 50.62,5.71 Z"
     fill="#bed04a"
     id="path4-5" /><path
     d="m 92.15,114.46 c 0,0 2.72,-2.46 3.66,-3.21 0.94,-0.75 5.3,-4.5 5.3,-4.5 0,0 6.93,-0.25 11.73,-2.25 5.96,-2.49 9.43,-8.73 9.9,-10.93 0.25,-1.19 -0.61,10.7 -9.15,16.47 -8.25,5.57 -21.44,4.42 -21.44,4.42 z"
     fill="#e4dda2"
     id="path5" /><path
     d="m 22.53,86.87 c -0.33,12.53 9.91,25.73 18.79,29.28 4.93,1.97 -15.77,-7.67 -14.08,-28.23 1.34,-16.35 17.81,-30.27 18.16,-39.56 0.21,-5.63 -6.76,-6.12 -6.76,-6.12 0,0 2.16,1.62 2.25,3.73 0.14,3.38 -8.59,15.77 -10.42,18.3 -1.81,2.54 -7.65,11.9 -7.94,22.6 z"
     fill="#e4dda2"
     id="path6" /><path
     d="m 25,30.07 4.32,4.69 c 0.21,-0.29 -4.72,4.71 -9.29,8.07 -3.06,2.25 -12.48,7.07 -12.98,6.59 -0.63,-0.61 2.28,-2.53 3.87,-3.94 1.21,-1.07 4.22,-3.78 4.22,-3.78 0,0 -3.71,0.4 -5.49,0.4 -1.78,0 -6.33,0.14 -5.91,-0.7 0.33,-0.66 6.88,-1.7 9.34,-2.7 C 20.49,35.7 25,30.07 25,30.07 Z"
     fill="#ee6d33"
     id="path7" /><path
     d="M 42.88,15.21 C 40.31,17 37.81,16.55 37,15.05 c -0.6,-1.12 -0.77,-3.24 1.6,-5.03 2.09,-1.58 4.77,-1.1 5.75,0.26 0.82,1.15 0.48,3.58 -1.47,4.93 z"
     fill="#323234"
     id="path8" /><path
     d="m 54.91,26.87 c -3.07,1.8 -5.56,0.87 -6.62,-0.76 -0.86,-1.33 -0.66,-4.53 1.83,-5.97 2.58,-1.5 5.44,-0.96 6.54,0.83 0.92,1.5 0.59,4.53 -1.75,5.9 z"
     fill="#323234"
     id="path9" /><path
     d="m 66.67,43.49 c -1.83,4.25 1.83,6.22 1.83,6.22 0,0 1.43,-3.05 2.04,-4.43 0.75,-1.71 1.48,-3.84 1.48,-3.84 0,0 -3.89,-1.35 -5.35,2.05 z"
     fill="#e4dda2"
     id="path10" /><path
     d="m 64.84,56.46 c 0,0 -2.53,-0.28 -4.79,-1.06 -2.05,-0.71 -5.5,-3.6 -7.6,0.14 -1.94,3.45 1.31,5.35 3.87,6.41 2.39,0.99 4.54,1.34 4.54,1.34 0,0 1.64,-2.75 2.11,-3.52 0.47,-0.77 1.87,-3.31 1.87,-3.31 z"
     fill="#e4dda2"
     id="path11" /><path
     d="m 56.25,70.52 c 0,0 -3.38,-0.19 -5.56,-0.75 -1.91,-0.49 -5.4,-2.82 -7.32,0.21 -1.71,2.7 0.77,4.84 4.08,5.7 3.66,0.95 5.77,0.67 5.77,0.67 0,0 0.88,-1.79 1.23,-2.78 0.37,-1.01 1.8,-3.05 1.8,-3.05 z"
     fill="#e4dda2"
     id="path12" /><path
     d="m 51.02,83.37 c 0,0 -4.08,0.56 -6.05,0.56 -2.04,0 -7.2,-0.48 -7.09,4.27 0.09,4.08 5.62,3.74 7.04,3.71 2.02,-0.05 7.29,-1 7.29,-1 0,0 -0.9,-1.6 -1.16,-3.84 -0.2,-1.64 -0.03,-3.7 -0.03,-3.7 z"
     fill="#e4dda2"
     id="path13" /><path
     d="m 55.12,93.84 c 0,0 -0.66,2.97 -1.62,5.14 -1.06,2.39 -3.52,6.48 1.48,8.38 4.62,1.76 6.48,-1.55 7.32,-5.28 0.78,-3.47 0.84,-6.3 0.84,-6.3 0,0 -2.44,-0.11 -4.46,-0.57 -1.62,-0.39 -3.56,-1.37 -3.56,-1.37 z"
     fill="#e4dda2"
     id="path14" /><path
     d="m 70.82,95.27 c 0,0 3.31,2.89 4.36,4.36 1.06,1.48 3.47,5.94 7.32,4.01 3.38,-1.69 0.65,-6.85 -0.99,-8.73 -1.37,-1.57 -3.45,-3.28 -5.42,-4.41 -1.32,-0.75 -2.44,-0.94 -2.44,-0.94 0,0 0.23,2.06 -0.38,3.52 -0.64,1.57 -2.45,2.19 -2.45,2.19 z"
     fill="#e4dda2"
     id="path15" /><path
     d="m 75.19,85.53 c 0.34,1.16 1.35,1.21 3.59,0.28 2.39,-0.99 5.63,-1.48 8.31,-1.48 3.17,0 6.26,2.11 7.39,3.03 1.13,0.92 2.49,1.24 2.7,-0.52 0.21,-1.76 -1.06,-3.73 -3.52,-5.49 -1.5,-1.07 -4.18,-2.72 -7.34,-2.79 -3.37,-0.07 -6.48,1.13 -8.45,2.39 -1.22,0.79 -3.25,2.68 -2.68,4.58 z"
     fill="#e4dda2"
     id="path16" /></g>
</svg>
