<?xml version="1.0" encoding="UTF-8" standalone="no"?>
<!-- Created with Inkscape (http://www.inkscape.org/) -->

<svg
   width="512"
   height="512"
   viewBox="0 0 512 512"
   version="1.1"
   id="svg1"
   xml:space="preserve"
   sodipodi:docname="sake.svg"
   inkscape:version="1.4 (e7c3feb100, 2024-10-09)"
   xmlns:inkscape="http://www.inkscape.org/namespaces/inkscape"
   xmlns:sodipodi="http://sodipodi.sourceforge.net/DTD/sodipodi-0.dtd"
   xmlns="http://www.w3.org/2000/svg"
   xmlns:svg="http://www.w3.org/2000/svg"><sodipodi:namedview
     id="namedview1"
     pagecolor="#505050"
     bordercolor="#ffffff"
     borderopacity="1"
     inkscape:showpageshadow="0"
     inkscape:pageopacity="0"
     inkscape:pagecheckerboard="1"
     inkscape:deskcolor="#505050"
     inkscape:zoom="1.2111966"
     inkscape:cx="100.31402"
     inkscape:cy="313.73932"
     inkscape:window-width="1897"
     inkscape:window-height="1080"
     inkscape:window-x="0"
     inkscape:window-y="0"
     inkscape:window-maximized="1"
     inkscape:current-layer="g8" /><defs
     id="defs1" /><circle
     style="fill:#ffcc00;stroke-width:3.403"
     id="path4"
     cx="256"
     cy="256"
     r="256" /><path
     style="display:inline;fill:#aa8800"
     d="m 190.63778,429.51706 27.06575,79.00289 C 363.68172,526.31912 447.20325,486.02522 488.6395,361.37077 L 261.62494,130.83012 206.56908,163.95211 Z"
     id="path5"
     sodipodi:nodetypes="cccccc" /><path
     style="fill:#ff6600"
     d="m 255.92992,279.34024 -0.35839,122.63666 c 4.42827,20.40446 16.36017,29.19673 31.95002,32.32817 l 25.4115,-0.1919 -0.0173,-154.66409 z"
     id="path2"
     sodipodi:nodetypes="cccccc" /><path
     style="fill:#d45500"
     d="m 313.029,434.42883 30.27618,-0.22374 c 16.10681,-3.51998 27.05488,-13.3828 29.93593,-33.16428 l 0.0605,-121.89368 -60.29315,0.4753 z"
     id="path3"
     sodipodi:nodetypes="cccccc" /><g
     id="g8"
     transform="matrix(0.83620407,0,0,0.81588592,106.97918,17.353116)">
	<g
   id="g2">
		<path
   style="fill:#fff6d5"
   d="m 135.539,2.417 c 1.425,-3.223 3.742,-3.223 5.161,0 l 5.48,12.434 c 1.425,3.223 5.444,5.541 8.939,5.155 l 13.514,-1.473 c 3.483,-0.375 4.653,1.635 2.577,4.472 l -8.027,10.967 c -2.082,2.837 -2.082,7.485 0,10.321 l 8.027,10.968 c 2.076,2.836 0.906,4.846 -2.577,4.46 l -13.514,-1.46 c -3.495,-0.38 -7.515,1.944 -8.939,5.161 L 140.7,75.85 c -1.418,3.223 -3.736,3.223 -5.161,0 l -5.486,-12.428 c -1.419,-3.217 -5.439,-5.541 -8.933,-5.161 l -13.508,1.46 c -3.495,0.386 -4.666,-1.624 -2.583,-4.46 l 8.028,-10.968 c 2.077,-2.836 2.077,-7.484 0,-10.321 l -8.028,-10.967 c -2.082,-2.837 -0.912,-4.847 2.583,-4.472 l 13.508,1.473 c 3.495,0.386 7.515,-1.931 8.933,-5.155 z"
   id="path1" />
	</g>
	<g
   id="g3">
		<path
   style="fill:#9d897e"
   d="m 175.744,497.611 c 0,7.949 -6.434,14.389 -14.389,14.389 h -46.488 c -7.944,0 -14.378,-6.44 -14.378,-14.389 v -91.298 c 0,-7.949 6.434,-14.383 14.378,-14.383 h 46.488 c 7.955,0 14.389,6.434 14.389,14.383 z"
   id="path2-5" />
		<path
   style="fill:#917d73"
   d="M 175.744,497.611 V 406.313 L 128.628,391.93 h -14.619 l -12.687,46.506 39.74,73.564 h 20.293 c 7.955,0 14.389,-6.44 14.389,-14.389 z"
   id="path3-3" />
	</g>
	<g
   id="g7">
		<path
   style="fill:#008000"
   d="m 241.631,325.752 c -3.995,-5.746 -3.277,-13.514 1.69,-18.427 l 11.474,-11.347 c 5.137,-5.095 5.698,-13.201 1.304,-18.959 l -42.233,-55.325 c -4.6,-6.024 -3.73,-14.589 1.985,-19.574 l 4.563,-3.959 c 5.861,-5.113 6.61,-13.949 1.678,-19.967 L 149.239,89.268 c -2.722,-3.331 -6.809,-5.263 -11.124,-5.263 -4.304,0 -8.39,1.932 -11.124,5.263 l -72.847,88.926 c -4.931,6.018 -4.189,14.854 1.677,19.967 l 4.569,3.959 c 5.716,4.985 6.579,13.551 1.98,19.574 l -42.239,55.325 c -4.388,5.758 -3.826,13.864 1.316,18.959 l 11.468,11.347 c 4.961,4.913 5.679,12.681 1.69,18.427 l -32.03,46.126 c -2.668,3.827 -3.302,8.71 -1.72,13.104 1.593,4.376 5.209,7.72 9.699,8.958 l 123.741,34.145 c 2.505,0.682 5.143,0.682 7.654,0 L 265.678,393.94 c 4.496,-1.237 8.112,-4.582 9.699,-8.958 1.582,-4.394 0.948,-9.277 -1.708,-13.104 z"
   id="path4-5" />
		<path
   style="fill:#ffffff"
   d="m 256.099,277.018 -3.241,-4.244 -251.23,100.667 c -1.841,3.549 -2.149,7.726 -0.773,11.54 0.525,1.431 1.268,2.753 2.185,3.93 L 259.033,286.332 c 0.127,-3.254 -0.821,-6.549 -2.934,-9.314 z"
   id="path5-6" />
		<path
   style="fill:#008000"
   d="m 213.867,221.694 c -4.6,-6.024 -3.73,-14.589 1.985,-19.574 l 4.563,-3.959 c 5.861,-5.113 6.61,-13.949 1.678,-19.967 l -2.613,-3.187 -174.991,70.112 -24.355,31.9 c -4.388,5.758 -3.826,13.864 1.316,18.959 l 11.468,11.347 c 4.961,4.913 5.679,12.681 1.69,18.427 L 2.575,371.878 c -0.35,0.501 -0.67,1.026 -0.948,1.564 L 252.858,272.775 Z"
   id="path6" />
		<path
   style="fill:#008000"
   d="m 10.555,393.939 123.741,34.145 c 2.505,0.682 5.143,0.682 7.654,0 l 123.729,-34.145 c 4.496,-1.237 8.112,-4.582 9.699,-8.958 1.582,-4.394 0.948,-9.277 -1.708,-13.104 l -32.038,-46.126 c -3.995,-5.746 -3.277,-13.514 1.69,-18.427 l 11.474,-11.347 c 2.668,-2.65 4.092,-6.121 4.238,-9.646 L 3.04,388.911 c 1.877,2.408 4.497,4.195 7.515,5.028 z"
   id="path7" />
		<polygon
   style="fill:#ffffff"
   points="219.48,175.007 209.78,163.164 61.781,222.473 44.489,245.119 "
   id="polygon7" />
	</g>
</g></svg>
