<?xml version="1.0" encoding="UTF-8" standalone="no"?>
<!-- Uploaded to: SVG Repo, www.svgrepo.com, Generator: SVG Repo Mixer Tools -->

<svg
   width="800px"
   height="800px"
   viewBox="0 0 24 24"
   fill="none"
   version="1.1"
   id="svg2"
   sodipodi:docname="user.svg"
   inkscape:version="1.3.2 (091e20ef0f, 2023-11-25)"
   xmlns:inkscape="http://www.inkscape.org/namespaces/inkscape"
   xmlns:sodipodi="http://sodipodi.sourceforge.net/DTD/sodipodi-0.dtd"
   xmlns="http://www.w3.org/2000/svg"
   xmlns:svg="http://www.w3.org/2000/svg">
  <defs
     id="defs2" />
  <sodipodi:namedview
     id="namedview2"
     pagecolor="#505050"
     bordercolor="#ffffff"
     borderopacity="1"
     inkscape:showpageshadow="0"
     inkscape:pageopacity="0"
     inkscape:pagecheckerboard="1"
     inkscape:deskcolor="#505050"
     inkscape:zoom="1.09625"
     inkscape:cx="400"
     inkscape:cy="400"
     inkscape:window-width="1890"
     inkscape:window-height="1076"
     inkscape:window-x="0"
     inkscape:window-y="0"
     inkscape:window-maximized="1"
     inkscape:current-layer="svg2" />
  <path
     opacity="0.4"
     d="M12 12C14.7614 12 17 9.76142 17 7C17 4.23858 14.7614 2 12 2C9.23858 2 7 4.23858 7 7C7 9.76142 9.23858 12 12 12Z"
     fill="#292D32"
     id="path1" />
  <path
     d="M12.0002 14.5C6.99015 14.5 2.91016 17.86 2.91016 22C2.91016 22.28 3.13016 22.5 3.41016 22.5H20.5901C20.8701 22.5 21.0901 22.28 21.0901 22C21.0901 17.86 17.0102 14.5 12.0002 14.5Z"
     fill="#292D32"
     id="path2" />
  <path
     style="fill:#999999;stroke-width:0.912201"
     d="m 108.27153,748.5971 c -4.48712,-1.62572 -8.90675,-6.42825 -10.214654,-11.09962 -2.344765,-8.37468 1.458039,-40.19711 7.274024,-60.87012 19.43872,-69.09524 76.07734,-129.85384 152.31266,-163.39211 45.00716,-19.80004 90.61346,-29.13343 142.35644,-29.13343 41.96816,0 78.75886,5.92742 115.44287,18.59922 48.76873,16.84623 87.42585,40.97002 121.05942,75.54656 33.33785,34.27251 54.90249,74.83398 62.67833,117.89322 2.75915,15.27891 4.1711,36.32564 2.77216,41.32215 -1.43408,5.12208 -5.90745,9.83201 -10.7027,11.2687 -5.31032,1.59101 -578.58104,1.45868 -582.97855,-0.13457 z"
     id="path3"
     transform="scale(0.03)" />
  <path
     style="fill:#999999;stroke-width:0.912201"
     d="m 380.84379,398.53293 c -52.61704,-5.95494 -100.44622,-38.04533 -126.29478,-84.73589 -10.59537,-19.13857 -16.92555,-38.86782 -19.70768,-61.42291 -1.38974,-11.26678 -0.64632,-37.28923 1.37928,-48.27995 13.86916,-75.2527 76.76923,-131.618334 152.34668,-136.519987 48.69308,-3.158041 94.39542,13.933666 128.86049,48.191097 25.73332,25.57829 41.96378,58.16183 47.29785,94.95307 2.20773,15.22768 1.38225,41.10691 -1.78085,55.82964 -15.37631,71.56959 -73.06152,124.13091 -144.89287,132.02271 -10.13506,1.1135 -27.18857,1.09617 -37.20812,-0.0378 z"
     id="path4"
     transform="scale(0.03)" />
  <path
     style="fill:#f2f2f2;stroke-width:0.912201"
     d="m 225.76967,748.99081 c -89.3145,-0.40395 -117.67659,-0.79328 -119.14514,-1.63554 -3.43172,-1.9682 -7.544724,-7.43598 -8.193028,-10.89174 -1.746526,-9.30978 1.602688,-37.22821 6.897738,-57.49822 16.74204,-64.09036 68.65707,-123.51858 138.42672,-158.45998 31.25801,-15.65434 67.64264,-27.20619 100.5998,-31.93968 61.42122,-8.82166 121.52712,-3.22381 175.6164,16.35568 45.08571,16.32035 80.05449,38.14617 111.77364,69.76372 22.21069,22.13955 35.67451,40.47805 47.80232,65.10955 14.02622,28.48712 20.67018,53.50471 22.08656,83.16611 0.66888,14.00761 -0.0673,17.13311 -5.108,21.68711 -3.05435,2.75941 -4.26128,3.21513 -9.75528,3.68338 -9.46749,0.80691 -327.7434,1.2623 -461.00173,0.65961 z"
     id="path5"
     transform="scale(0.03)" />
</svg>
