<?xml version="1.0" encoding="UTF-8" standalone="no"?>
<!-- Uploaded to: SVG Repo, www.svgrepo.com, Generator: SVG Repo Mixer Tools -->

<svg
   width="800px"
   height="800px"
   viewBox="0 0 24 24"
   fill="none"
   version="1.1"
   id="svg4"
   sodipodi:docname="kmt.svg"
   inkscape:version="1.3.2 (091e20ef0f, 2023-11-25)"
   xml:space="preserve"
   xmlns:inkscape="http://www.inkscape.org/namespaces/inkscape"
   xmlns:sodipodi="http://sodipodi.sourceforge.net/DTD/sodipodi-0.dtd"
   xmlns="http://www.w3.org/2000/svg"
   xmlns:svg="http://www.w3.org/2000/svg"><defs
     id="defs4" /><sodipodi:namedview
     id="namedview4"
     pagecolor="#505050"
     bordercolor="#ffffff"
     borderopacity="1"
     inkscape:showpageshadow="0"
     inkscape:pageopacity="0"
     inkscape:pagecheckerboard="1"
     inkscape:deskcolor="#505050"
     showgrid="false"
     inkscape:zoom="1.09125"
     inkscape:cx="400"
     inkscape:cy="400"
     inkscape:window-width="1890"
     inkscape:window-height="1076"
     inkscape:window-x="0"
     inkscape:window-y="0"
     inkscape:window-maximized="1"
     inkscape:current-layer="g2" /><path
     opacity="0.4"
     d="M16.19 2H7.81C4.17 2 2 4.17 2 7.81V16.18C2 19.83 4.17 22 7.81 22H16.18C19.82 22 21.99 19.83 21.99 16.19V7.81C22 4.17 19.83 2 16.19 2Z"
     fill="#292D32"
     id="path1" /><path
     style="fill:#808080;fill-opacity:1;stroke-width:0.91638"
     d="M 238.25888,732.11488 C 168.10808,726.24276 117.29694,695.4547 89.769083,642.14024 79.97626,623.17403 73.993288,604.45085 69.846622,579.79467 l -2.03448,-12.09708 v -167.2394 c 0,-157.43669 0.09803,-167.85711 1.672482,-177.77778 3.825351,-24.1037 9.950763,-44.41133 18.657584,-61.85567 C 114.37059,108.2755 160.41231,78.042812 228.63688,68.570751 239.56007,67.054213 540.5446,66.345353 559.45017,67.79164 c 30.3647,2.322916 54.59545,8.326379 77.51832,19.206107 32.91542,15.622433 57.23237,39.366063 73.95534,72.211733 10.38525,20.3977 16.3613,41.07408 20.0665,69.4274 1.74993,13.39097 1.75046,328.20111 5.9e-4,342.26805 -6.87937,55.30183 -29.09101,97.18415 -66.37009,125.1476 -24.9336,18.70295 -54.2743,29.82355 -93.25771,35.34617 -9.27126,1.31342 -318.03864,1.97727 -333.10424,0.71618 z M 461.81629,257.99571 c 14.96392,-7.4202 17.88844,-28.01376 5.52042,-38.87303 -7.24895,-6.36466 -3.91332,-6.06426 -67.33671,-6.06426 -63.72071,0 -60.22914,-0.32711 -67.60138,6.33328 -2.01145,1.81722 -4.58037,5.45002 -5.7087,8.07291 -4.03044,9.36902 -1.00358,21.80205 6.74698,27.71369 6.6364,5.06183 5.4826,4.97992 67.47948,4.7905 54.871,-0.16765 57.4259,-0.25042 60.89991,-1.97309 z"
     id="path4"
     transform="scale(0.03)" /><path
     style="fill:#333333;fill-opacity:1;stroke-width:0.91638"
     d="m 341.40466,258.35303 c -8.99202,-1.79968 -15.63146,-11.09136 -15.63146,-21.87571 0,-4.35784 0.53432,-7.04964 1.92283,-9.68677 2.69481,-5.11812 7.91231,-10.28692 11.76579,-11.65598 2.498,-0.88748 16.49585,-1.15977 59.6218,-1.15977 30.99656,0 57.9408,0.33491 59.87608,0.74424 4.45877,0.94308 10.80967,6.70605 13.35307,12.11689 3.90986,8.31789 1.99327,19.45015 -4.4596,25.90303 -6.49882,6.49882 -2.57451,6.1227 -65.56222,6.28364 -31.24857,0.0798 -58.6474,-0.22147 -60.88629,-0.66957 z"
     id="path5"
     transform="scale(0.03)" /><path
     style="fill:#333333;fill-opacity:1;stroke-width:0.91638"
     d="M 236.88431,731.57702 C 183.09992,726.25228 140.18578,706.53201 112.31738,674.33499 90.429619,649.04755 76.811249,618.08921 70.107378,578.37993 68.211782,567.15169 68.200058,565.82764 68.500777,396.93663 68.837612,207.76198 68.249152,225.5064 75.081639,198.49746 c 10.473377,-41.40144 31.579801,-73.48443 63.471741,-96.48074 8.91823,-6.430666 29.52305,-17.072688 41.38034,-21.37221 9.98125,-3.619259 26.03731,-7.76185 39.90188,-10.295003 l 11.09224,-2.026628 166.32302,-0.02627 c 133.48856,-0.02109 168.13209,0.214827 175.48683,1.195025 45.3774,6.047639 81.3443,22.308997 107.64545,48.668676 24.03258,24.08606 39.04942,53.07379 46.78754,90.31621 2.61835,12.60172 2.93182,16.03367 3.76649,41.23711 0.53858,16.2626 0.75616,87.19128 0.53272,173.65407 -0.37201,143.94981 -0.40713,146.32989 -2.31973,157.20928 -4.03674,22.962 -9.01735,39.06073 -17.57675,56.81296 -12.72086,26.38311 -32.20293,48.68569 -56.3615,64.52124 -17.33571,11.36329 -40.29031,20.43901 -65.063,25.72446 -13.19946,2.81621 -14.92924,2.96185 -43.52806,3.66491 -28.35572,0.69708 -303.0117,0.94224 -309.73654,0.27647 z m 226.51094,-473.8802 c 8.25567,-5.13353 12.17039,-12.87257 11.60178,-22.93564 -0.42989,-7.6079 -3.71899,-13.7311 -9.59347,-17.85985 -5.78236,-4.06399 -12.52089,-4.45574 -71.08595,-4.13262 l -52.50776,0.28971 -4.33293,2.13397 c -4.64738,2.28886 -9.05986,7.1557 -11.25853,12.41786 -1.55301,3.71687 -1.79058,12.3722 -0.46634,16.98958 2.08198,7.25939 8.93372,13.63965 15.91808,14.82269 2.09288,0.3545 29.57844,0.58307 61.07901,0.50792 l 57.27377,-0.13663 z"
     id="path6"
     transform="scale(0.03)" /><rect
     style="fill:#333333;fill-opacity:1;stroke-width:0.03"
     id="rect6"
     width="5.8111038"
     height="2.8727448"
     x="9.0226593"
     y="5.7667522"
     ry="0" /><text
     xml:space="preserve"
     style="font-style:normal;font-variant:normal;font-weight:normal;font-stretch:normal;font-size:10px;font-family:'Gentium Book Basic';-inkscape-font-specification:'Gentium Book Basic, Normal';font-variant-ligatures:normal;font-variant-caps:normal;font-variant-numeric:normal;font-variant-east-asian:normal;fill:#333333;fill-opacity:1;stroke-width:0.0400445"
     x="2.9849224"
     y="14.829838"
     id="text6"
     transform="scale(1.0194371,0.98093349)"><tspan
       sodipodi:role="line"
       id="tspan6"
       style="font-style:normal;font-variant:normal;font-weight:normal;font-stretch:normal;font-size:10px;font-family:'Gentium Book Basic';-inkscape-font-specification:'Gentium Book Basic, Normal';font-variant-ligatures:normal;font-variant-caps:normal;font-variant-numeric:normal;font-variant-east-asian:normal;fill:#ffffff;stroke-width:0.0400445"
       x="2.9849224"
       y="14.829838">Kmt</tspan></text><g
     style="fill:none"
     id="g1"
     transform="matrix(0.32821445,0,0,0.32276632,15.873146,0.47420537)"><path
       opacity="0.4"
       d="M 16.19,2 H 7.81 C 4.17,2 2,4.17 2,7.81 v 8.37 C 2,19.83 4.17,22 7.81,22 h 8.37 c 3.64,0 5.81,-2.17 5.81,-5.81 V 7.81 C 22,4.17 19.83,2 16.19,2 Z"
       fill="#292d32"
       id="path1-8" /><path
       style="fill:#808080;fill-opacity:1;stroke-width:0.91638"
       d="M 238.25888,732.11488 C 168.10808,726.24276 117.29694,695.4547 89.769083,642.14024 79.97626,623.17403 73.993288,604.45085 69.846622,579.79467 l -2.03448,-12.09708 v -167.2394 c 0,-157.43669 0.09803,-167.85711 1.672482,-177.77778 3.825351,-24.1037 9.950763,-44.41133 18.657584,-61.85567 C 114.37059,108.2755 160.41231,78.042812 228.63688,68.570751 239.56007,67.054213 540.5446,66.345353 559.45017,67.79164 c 30.3647,2.322916 54.59545,8.326379 77.51832,19.206107 32.91542,15.622433 57.23237,39.366063 73.95534,72.211733 10.38525,20.3977 16.3613,41.07408 20.0665,69.4274 1.74993,13.39097 1.75046,328.20111 5.9e-4,342.26805 -6.87937,55.30183 -29.09101,97.18415 -66.37009,125.1476 -24.9336,18.70295 -54.2743,29.82355 -93.25771,35.34617 -9.27126,1.31342 -318.03864,1.97727 -333.10424,0.71618 z M 461.81629,257.99571 c 14.96392,-7.4202 17.88844,-28.01376 5.52042,-38.87303 -7.24895,-6.36466 -3.91332,-6.06426 -67.33671,-6.06426 -63.72071,0 -60.22914,-0.32711 -67.60138,6.33328 -2.01145,1.81722 -4.58037,5.45002 -5.7087,8.07291 -4.03044,9.36902 -1.00358,21.80205 6.74698,27.71369 6.6364,5.06183 5.4826,4.97992 67.47948,4.7905 54.871,-0.16765 57.4259,-0.25042 60.89991,-1.97309 z"
       id="path4-4"
       transform="scale(0.03)" /><path
       style="fill:#333333;fill-opacity:1;stroke-width:0.91638"
       d="m 341.40466,258.35303 c -8.99202,-1.79968 -15.63146,-11.09136 -15.63146,-21.87571 0,-4.35784 0.53432,-7.04964 1.92283,-9.68677 2.69481,-5.11812 7.91231,-10.28692 11.76579,-11.65598 2.498,-0.88748 16.49585,-1.15977 59.6218,-1.15977 30.99656,0 57.9408,0.33491 59.87608,0.74424 4.45877,0.94308 10.80967,6.70605 13.35307,12.11689 3.90986,8.31789 1.99327,19.45015 -4.4596,25.90303 -6.49882,6.49882 -2.57451,6.1227 -65.56222,6.28364 -31.24857,0.0798 -58.6474,-0.22147 -60.88629,-0.66957 z"
       id="path5-0"
       transform="scale(0.03)" /><path
       style="fill:#333333;fill-opacity:1;stroke-width:0.91638"
       d="M 236.88431,731.57702 C 183.09992,726.25228 140.18578,706.53201 112.31738,674.33499 90.429619,649.04755 76.811249,618.08921 70.107378,578.37993 68.211782,567.15169 68.200058,565.82764 68.500777,396.93663 68.837612,207.76198 68.249152,225.5064 75.081639,198.49746 c 10.473377,-41.40144 31.579801,-73.48443 63.471741,-96.48074 8.91823,-6.430666 29.52305,-17.072688 41.38034,-21.37221 9.98125,-3.619259 26.03731,-7.76185 39.90188,-10.295003 l 11.09224,-2.026628 166.32302,-0.02627 c 133.48856,-0.02109 168.13209,0.214827 175.48683,1.195025 45.3774,6.047639 81.3443,22.308997 107.64545,48.668676 24.03258,24.08606 39.04942,53.07379 46.78754,90.31621 2.61835,12.60172 2.93182,16.03367 3.76649,41.23711 0.53858,16.2626 0.75616,87.19128 0.53272,173.65407 -0.37201,143.94981 -0.40713,146.32989 -2.31973,157.20928 -4.03674,22.962 -9.01735,39.06073 -17.57675,56.81296 -12.72086,26.38311 -32.20293,48.68569 -56.3615,64.52124 -17.33571,11.36329 -40.29031,20.43901 -65.063,25.72446 -13.19946,2.81621 -14.92924,2.96185 -43.52806,3.66491 -28.35572,0.69708 -303.0117,0.94224 -309.73654,0.27647 z m 226.51094,-473.8802 c 8.25567,-5.13353 12.17039,-12.87257 11.60178,-22.93564 -0.42989,-7.6079 -3.71899,-13.7311 -9.59347,-17.85985 -5.78236,-4.06399 -12.52089,-4.45574 -71.08595,-4.13262 l -52.50776,0.28971 -4.33293,2.13397 c -4.64738,2.28886 -9.05986,7.1557 -11.25853,12.41786 -1.55301,3.71687 -1.79058,12.3722 -0.46634,16.98958 2.08198,7.25939 8.93372,13.63965 15.91808,14.82269 2.09288,0.3545 29.57844,0.58307 61.07901,0.50792 l 57.27377,-0.13663 z"
       id="path6-0"
       transform="scale(0.03)" /><rect
       style="fill:#333333;fill-opacity:1;stroke-width:0.03"
       id="rect6-8"
       width="5.8111038"
       height="2.8727448"
       x="9.0226593"
       y="5.7667522"
       ry="0" /><text
       xml:space="preserve"
       style="font-style:normal;font-variant:normal;font-weight:normal;font-stretch:normal;font-size:17.6754px;font-family:'Gentium Book Basic';-inkscape-font-specification:'Gentium Book Basic, Normal';font-variant-ligatures:normal;font-variant-caps:normal;font-variant-numeric:normal;font-variant-east-asian:normal;fill:#333333;fill-opacity:1;stroke-width:0.0707804"
       x="4.0783668"
       y="13.59636"
       id="text6-6"
       transform="scale(0.96509542,1.036167)"><tspan
         sodipodi:role="line"
         id="tspan6-8"
         style="font-style:normal;font-variant:normal;font-weight:normal;font-stretch:normal;font-size:17.6754px;font-family:'Gentium Book Basic';-inkscape-font-specification:'Gentium Book Basic, Normal';font-variant-ligatures:normal;font-variant-caps:normal;font-variant-numeric:normal;font-variant-east-asian:normal;fill:#ffffff;stroke-width:0.0707804"
         x="4.0783668"
         y="13.59636">sg</tspan></text></g><g
     style="fill:none"
     id="g2"
     transform="matrix(0.32821445,0,0,0.32276632,15.741651,15.7164)"><path
       opacity="0.4"
       d="M 16.19,2 H 7.81 C 4.17,2 2,4.17 2,7.81 v 8.37 C 2,19.83 4.17,22 7.81,22 h 8.37 c 3.64,0 5.81,-2.17 5.81,-5.81 V 7.81 C 22,4.17 19.83,2 16.19,2 Z"
       fill="#292d32"
       id="path1-8-3" /><path
       style="fill:#808080;fill-opacity:1;stroke-width:0.91638"
       d="M 238.25888,732.11488 C 168.10808,726.24276 117.29694,695.4547 89.769083,642.14024 79.97626,623.17403 73.993288,604.45085 69.846622,579.79467 l -2.03448,-12.09708 v -167.2394 c 0,-157.43669 0.09803,-167.85711 1.672482,-177.77778 3.825351,-24.1037 9.950763,-44.41133 18.657584,-61.85567 C 114.37059,108.2755 160.41231,78.042812 228.63688,68.570751 239.56007,67.054213 540.5446,66.345353 559.45017,67.79164 c 30.3647,2.322916 54.59545,8.326379 77.51832,19.206107 32.91542,15.622433 57.23237,39.366063 73.95534,72.211733 10.38525,20.3977 16.3613,41.07408 20.0665,69.4274 1.74993,13.39097 1.75046,328.20111 5.9e-4,342.26805 -6.87937,55.30183 -29.09101,97.18415 -66.37009,125.1476 -24.9336,18.70295 -54.2743,29.82355 -93.25771,35.34617 -9.27126,1.31342 -318.03864,1.97727 -333.10424,0.71618 z M 461.81629,257.99571 c 14.96392,-7.4202 17.88844,-28.01376 5.52042,-38.87303 -7.24895,-6.36466 -3.91332,-6.06426 -67.33671,-6.06426 -63.72071,0 -60.22914,-0.32711 -67.60138,6.33328 -2.01145,1.81722 -4.58037,5.45002 -5.7087,8.07291 -4.03044,9.36902 -1.00358,21.80205 6.74698,27.71369 6.6364,5.06183 5.4826,4.97992 67.47948,4.7905 54.871,-0.16765 57.4259,-0.25042 60.89991,-1.97309 z"
       id="path4-4-8"
       transform="scale(0.03)" /><path
       style="fill:#333333;fill-opacity:1;stroke-width:0.91638"
       d="m 341.40466,258.35303 c -8.99202,-1.79968 -15.63146,-11.09136 -15.63146,-21.87571 0,-4.35784 0.53432,-7.04964 1.92283,-9.68677 2.69481,-5.11812 7.91231,-10.28692 11.76579,-11.65598 2.498,-0.88748 16.49585,-1.15977 59.6218,-1.15977 30.99656,0 57.9408,0.33491 59.87608,0.74424 4.45877,0.94308 10.80967,6.70605 13.35307,12.11689 3.90986,8.31789 1.99327,19.45015 -4.4596,25.90303 -6.49882,6.49882 -2.57451,6.1227 -65.56222,6.28364 -31.24857,0.0798 -58.6474,-0.22147 -60.88629,-0.66957 z"
       id="path5-0-5"
       transform="scale(0.03)" /><path
       style="fill:#333333;fill-opacity:1;stroke-width:0.91638"
       d="M 236.88431,731.57702 C 183.09992,726.25228 140.18578,706.53201 112.31738,674.33499 90.429619,649.04755 76.811249,618.08921 70.107378,578.37993 68.211782,567.15169 68.200058,565.82764 68.500777,396.93663 68.837612,207.76198 68.249152,225.5064 75.081639,198.49746 c 10.473377,-41.40144 31.579801,-73.48443 63.471741,-96.48074 8.91823,-6.430666 29.52305,-17.072688 41.38034,-21.37221 9.98125,-3.619259 26.03731,-7.76185 39.90188,-10.295003 l 11.09224,-2.026628 166.32302,-0.02627 c 133.48856,-0.02109 168.13209,0.214827 175.48683,1.195025 45.3774,6.047639 81.3443,22.308997 107.64545,48.668676 24.03258,24.08606 39.04942,53.07379 46.78754,90.31621 2.61835,12.60172 2.93182,16.03367 3.76649,41.23711 0.53858,16.2626 0.75616,87.19128 0.53272,173.65407 -0.37201,143.94981 -0.40713,146.32989 -2.31973,157.20928 -4.03674,22.962 -9.01735,39.06073 -17.57675,56.81296 -12.72086,26.38311 -32.20293,48.68569 -56.3615,64.52124 -17.33571,11.36329 -40.29031,20.43901 -65.063,25.72446 -13.19946,2.81621 -14.92924,2.96185 -43.52806,3.66491 -28.35572,0.69708 -303.0117,0.94224 -309.73654,0.27647 z m 226.51094,-473.8802 c 8.25567,-5.13353 12.17039,-12.87257 11.60178,-22.93564 -0.42989,-7.6079 -3.71899,-13.7311 -9.59347,-17.85985 -5.78236,-4.06399 -12.52089,-4.45574 -71.08595,-4.13262 l -52.50776,0.28971 -4.33293,2.13397 c -4.64738,2.28886 -9.05986,7.1557 -11.25853,12.41786 -1.55301,3.71687 -1.79058,12.3722 -0.46634,16.98958 2.08198,7.25939 8.93372,13.63965 15.91808,14.82269 2.09288,0.3545 29.57844,0.58307 61.07901,0.50792 l 57.27377,-0.13663 z"
       id="path6-0-0"
       transform="scale(0.03)" /><rect
       style="fill:#333333;fill-opacity:1;stroke-width:0.03"
       id="rect6-8-5"
       width="5.8111038"
       height="2.8727448"
       x="9.0226593"
       y="5.7667522"
       ry="0" /></g></svg>
